<?xml version="1.0" encoding="utf-8"?>
<!-- Generator: Adobe Illustrator 28.0.0, SVG Export Plug-In . SVG Version: 6.00 Build 0)  -->
<svg version="1.1" id="Layer_1" xmlns="http://www.w3.org/2000/svg" xmlns:xlink="http://www.w3.org/1999/xlink" x="0px" y="0px"
	 viewBox="0 0 1318 800" style="enable-background:new 0 0 1318 800;" xml:space="preserve">
<style type="text/css">
	.st0{fill-rule:evenodd;clip-rule:evenodd;fill:url(#SVGID_1_);}
	.st1{fill-rule:evenodd;clip-rule:evenodd;fill:url(#SVGID_00000095311958277392401460000013605359824311783333_);}
	
		.st2{opacity:0.558;fill-rule:evenodd;clip-rule:evenodd;fill:url(#SVGID_00000118392290172631973630000013342076979181200054_);enable-background:new    ;}
	
		.st3{opacity:0.503;fill-rule:evenodd;clip-rule:evenodd;fill:url(#SVGID_00000103242139480509741300000013662663233694824603_);enable-background:new    ;}
	
		.st4{opacity:0.558;fill-rule:evenodd;clip-rule:evenodd;fill:url(#SVGID_00000072992751276180852880000014334083837069270914_);enable-background:new    ;}
	
		.st5{opacity:0.558;fill-rule:evenodd;clip-rule:evenodd;fill:url(#SVGID_00000102534723479374923360000014905729845771046823_);enable-background:new    ;}
	
		.st6{opacity:0.387;fill-rule:evenodd;clip-rule:evenodd;fill:url(#SVGID_00000008844337721492087970000002863491160616844933_);enable-background:new    ;}
	
		.st7{opacity:0.211;fill-rule:evenodd;clip-rule:evenodd;fill:url(#SVGID_00000128471957836143784980000010395422654363965058_);enable-background:new    ;}
</style>
<g>
	
		<linearGradient id="SVGID_1_" gradientUnits="userSpaceOnUse" x1="639.3305" y1="421.6073" x2="640.7609" y2="419.7265" gradientTransform="matrix(-834.817 0 0 -532.83 534921.875 224168.6094)">
		<stop  offset="0" style="stop-color:#FF52C1"/>
		<stop  offset="4.090000e-02" style="stop-color:#F952C5"/>
		<stop  offset="1" style="stop-color:#9952FF;stop-opacity:0"/>
	</linearGradient>
	<path class="st0" d="M834.8,0H425.6L0,376v156.8L834.8,0z"/>
	
		<linearGradient id="SVGID_00000145762553617047870130000001228028671534634936_" gradientUnits="userSpaceOnUse" x1="638.9994" y1="420.3694" x2="640.6179" y2="418.1504" gradientTransform="matrix(-1057.3 0 0 434 677311 -181099)">
		<stop  offset="0" style="stop-color:#FF52C1"/>
		<stop  offset="4.090000e-02" style="stop-color:#F952C5"/>
		<stop  offset="1" style="stop-color:#9952FF;stop-opacity:0"/>
	</linearGradient>
	<path style="fill-rule:evenodd;clip-rule:evenodd;fill:url(#SVGID_00000145762553617047870130000001228028671534634936_);" d="
		M1057.3,801l-641.2-0.1L0,494.7V367L1057.3,801z"/>
	
		<linearGradient id="SVGID_00000091012777243122855090000009432820613363777175_" gradientUnits="userSpaceOnUse" x1="620.191" y1="415.0738" x2="621.4328" y2="413.6679" gradientTransform="matrix(26.8701 26.8701 26.8701 -26.8701 -26708.5215 -4822.5425)">
		<stop  offset="0" style="stop-color:#FF52C1"/>
		<stop  offset="1" style="stop-color:#9952FF"/>
	</linearGradient>
	
		<path style="opacity:0.558;fill-rule:evenodd;clip-rule:evenodd;fill:url(#SVGID_00000091012777243122855090000009432820613363777175_);enable-background:new    ;" d="
		M1110,684.1l22.6,22.6c1.2,1.2,1.2,3.1,0,4.2l-22.6,22.6c-1.2,1.2-3.1,1.2-4.2,0l-22.6-22.6c-1.2-1.2-1.2-3.1,0-4.2l22.6-22.6
		C1106.9,682.9,1108.8,682.9,1110,684.1z"/>
	
		<linearGradient id="SVGID_00000069377809316109497640000005032766800409203890_" gradientUnits="userSpaceOnUse" x1="626.2858" y1="416.6229" x2="627.5276" y2="415.217" gradientTransform="matrix(39.598 39.598 39.598 -39.598 -40015.6602 -8227.957)">
		<stop  offset="0" style="stop-color:#FF52C1"/>
		<stop  offset="1" style="stop-color:#9952FF"/>
	</linearGradient>
	
		<path style="opacity:0.503;fill-rule:evenodd;clip-rule:evenodd;fill:url(#SVGID_00000069377809316109497640000005032766800409203890_);enable-background:new    ;" d="
		M1281.7,66.1l35.4,35.4c1.2,1.2,1.2,3.1,0,4.2l-35.4,35.4c-1.2,1.2-3.1,1.2-4.2,0l-35.4-35.4c-1.2-1.2-1.2-3.1,0-4.2l35.4-35.4
		C1278.6,64.9,1280.5,64.9,1281.7,66.1z"/>
	
		<linearGradient id="SVGID_00000073702931693546103170000005273131008415370682_" gradientUnits="userSpaceOnUse" x1="616.6357" y1="414.1701" x2="617.8775" y2="412.7643" gradientTransform="matrix(22.6274 22.6274 22.6274 -22.6274 -22388.8066 -4534.4048)">
		<stop  offset="0" style="stop-color:#FF52C1"/>
		<stop  offset="1" style="stop-color:#9952FF"/>
	</linearGradient>
	
		<path style="opacity:0.558;fill-rule:evenodd;clip-rule:evenodd;fill:url(#SVGID_00000073702931693546103170000005273131008415370682_);enable-background:new    ;" d="
		M936.7,43.1l18.4,18.4c1.2,1.2,1.2,3.1,0,4.2l-18.4,18.4c-1.2,1.2-3.1,1.2-4.2,0l-18.4-18.4c-1.2-1.2-1.2-3.1,0-4.2l18.4-18.4
		C933.7,41.9,935.6,41.9,936.7,43.1z"/>
	
		<linearGradient id="SVGID_00000046337200210319348500000012257539140312913541_" gradientUnits="userSpaceOnUse" x1="616.6357" y1="414.1701" x2="617.8775" y2="412.7643" gradientTransform="matrix(22.6274 22.6274 22.6274 -22.6274 -22619.8066 -4411.4048)">
		<stop  offset="0" style="stop-color:#FF52C1"/>
		<stop  offset="1" style="stop-color:#9952FF"/>
	</linearGradient>
	
		<path style="opacity:0.558;fill-rule:evenodd;clip-rule:evenodd;fill:url(#SVGID_00000046337200210319348500000012257539140312913541_);enable-background:new    ;" d="
		M705.7,166.1l18.4,18.4c1.2,1.2,1.2,3.1,0,4.2l-18.4,18.4c-1.2,1.2-3.1,1.2-4.2,0l-18.4-18.4c-1.2-1.2-1.2-3.1,0-4.2l18.4-18.4
		C702.7,164.9,704.6,164.9,705.7,166.1z"/>
	
		<linearGradient id="SVGID_00000098907425487796488820000003256686936704094884_" gradientUnits="userSpaceOnUse" x1="596.7678" y1="409.1203" x2="598.0096" y2="407.7144" gradientTransform="matrix(12.0208 12.0208 12.0208 -12.0208 -10854.0234 -1658.5579)">
		<stop  offset="0" style="stop-color:#FF52C1"/>
		<stop  offset="1" style="stop-color:#9952FF"/>
	</linearGradient>
	
		<path style="opacity:0.387;fill-rule:evenodd;clip-rule:evenodd;fill:url(#SVGID_00000098907425487796488820000003256686936704094884_);enable-background:new    ;" d="
		M1237.7,594.7l10.6,10.6c0.4,0.4,0.4,1,0,1.4l-10.6,10.6c-0.4,0.4-1,0.4-1.4,0l-10.6-10.6c-0.4-0.4-0.4-1,0-1.4l10.6-10.6
		C1236.7,594.3,1237.3,594.3,1237.7,594.7z"/>
	
		<linearGradient id="SVGID_00000003791960355282063520000005011352805160785546_" gradientUnits="userSpaceOnUse" x1="625.4525" y1="416.6851" x2="626.3063" y2="415.4761" gradientTransform="matrix(37.4767 37.4767 37.4767 -37.4767 -38952.3047 -7120.3882)">
		<stop  offset="0" style="stop-color:#FF52C1"/>
		<stop  offset="1" style="stop-color:#9952FF"/>
	</linearGradient>
	
		<path style="opacity:0.211;fill-rule:evenodd;clip-rule:evenodd;fill:url(#SVGID_00000003791960355282063520000005011352805160785546_);enable-background:new    ;" d="
		M96.5,737.4l11.7-11.7c2-2,5.1-2,7.1,0c2,2,2,5.1,0,7.1l-11.7,11.7l11.7,11.7c2,2,2,5.1,0,7.1c-2,2-5.1,2-7.1,0l-11.7-11.7
		l-11.7,11.7c-2,2-5.1,2-7.1,0c-2-2-2-5.1,0-7.1l11.7-11.7l-11.7-11.7c-2-2-2-5.1,0-7.1c2-2,5.1-2,7.1,0L96.5,737.4z"/>
</g>
</svg>
