<?xml version="1.0" encoding="iso-8859-1"?>
<!-- Generator: Adobe Illustrator 28.0.0, SVG Export Plug-In . SVG Version: 6.00 Build 0)  -->
<svg version="1.1" id="Layer_1" xmlns="http://www.w3.org/2000/svg" xmlns:xlink="http://www.w3.org/1999/xlink" x="0px" y="0px"
	 viewBox="0 0 40 40" style="enable-background:new 0 0 40 40;" xml:space="preserve">
<path style="fill:#FFFFFF;" d="M24.366,21.319l0.525-3.42h-3.281V15.68c0-0.936,0.458-1.847,1.928-1.847h1.492v-2.911
	c0,0-1.354-0.231-2.648-0.231c-2.702,0-4.468,1.638-4.468,4.603v2.606h-3.004v3.42h3.004v8.267h3.697v-8.267H24.366z"/>
<g>
	<path style="fill:#FFFFFF;" d="M20,1.5c10.201,0,18.5,8.299,18.5,18.5S30.201,38.5,20,38.5S1.5,30.201,1.5,20S9.799,1.5,20,1.5
		 M20,0C8.954,0,0,8.954,0,20s8.954,20,20,20s20-8.954,20-20S31.046,0,20,0L20,0z"/>
</g>
</svg>
