<?xml version="1.0" encoding="iso-8859-1"?>
<!-- Generator: Adobe Illustrator 28.0.0, SVG Export Plug-In . SVG Version: 6.00 Build 0)  -->
<svg version="1.1" id="Layer_1" xmlns="http://www.w3.org/2000/svg" xmlns:xlink="http://www.w3.org/1999/xlink" x="0px" y="0px"
	 viewBox="0 0 40 40" style="enable-background:new 0 0 40 40;" xml:space="preserve">
<g>
	<path style="fill:#FFFFFF;" d="M20,1.5c10.201,0,18.5,8.299,18.5,18.5S30.201,38.5,20,38.5S1.5,30.201,1.5,20S9.799,1.5,20,1.5
		 M20,0C8.954,0,0,8.954,0,20s8.954,20,20,20s20-8.954,20-20S31.046,0,20,0L20,0z"/>
</g>
<path style="fill:#FFFFFF;" d="M27.294,15.855c0.011,0.158,0.011,0.316,0.011,0.474c0,4.815-3.665,10.363-10.363,10.363
	c-2.064,0-3.981-0.598-5.593-1.635c0.293,0.034,0.575,0.045,0.88,0.045c1.703,0,3.27-0.575,4.522-1.556
	c-1.601-0.034-2.943-1.083-3.406-2.526c0.226,0.034,0.451,0.056,0.688,0.056c0.327,0,0.654-0.045,0.959-0.124
	c-1.669-0.338-2.921-1.804-2.921-3.575v-0.045c0.485,0.271,1.049,0.44,1.646,0.462c-0.981-0.654-1.624-1.77-1.624-3.033
	c0-0.677,0.18-1.297,0.496-1.838c1.793,2.21,4.488,3.654,7.51,3.812c-0.056-0.271-0.09-0.553-0.09-0.834
	c0-2.007,1.624-3.642,3.642-3.642c1.049,0,1.996,0.44,2.661,1.15c0.823-0.158,1.613-0.462,2.312-0.88
	c-0.271,0.846-0.846,1.556-1.601,2.007c0.733-0.079,1.443-0.282,2.097-0.564C28.625,14.694,28.005,15.336,27.294,15.855
	L27.294,15.855z"/>
</svg>
