<?xml version="1.0" encoding="iso-8859-1"?>
<!-- Generator: Adobe Illustrator 28.0.0, SVG Export Plug-In . SVG Version: 6.00 Build 0)  -->
<svg version="1.1" id="Layer_1" xmlns="http://www.w3.org/2000/svg" xmlns:xlink="http://www.w3.org/1999/xlink" x="0px" y="0px"
	 viewBox="0 0 40 40" style="enable-background:new 0 0 40 40;" xml:space="preserve">
<g>
	<path style="fill:#FFFFFF;" d="M20,1.5c10.201,0,18.5,8.299,18.5,18.5S30.201,38.5,20,38.5S1.5,30.201,1.5,20S9.799,1.5,20,1.5
		 M20,0C8.954,0,0,8.954,0,20s8.954,20,20,20s20-8.954,20-20S31.046,0,20,0L20,0z"/>
</g>
<path style="fill:#FFFFFF;" d="M20.002,15.385c-2.555,0-4.615,2.061-4.615,4.615s2.061,4.615,4.615,4.615s4.615-2.061,4.615-4.615
	S22.557,15.385,20.002,15.385z M20.002,23.001c-1.651,0-3.001-1.346-3.001-3.001s1.346-3.001,3.001-3.001s3.001,1.346,3.001,3.001
	S21.653,23.001,20.002,23.001L20.002,23.001z M25.883,15.196c0,0.599-0.482,1.077-1.077,1.077c-0.599,0-1.077-0.482-1.077-1.077
	c0-0.595,0.482-1.077,1.077-1.077C25.401,14.119,25.883,14.601,25.883,15.196z M28.94,16.288c-0.068-1.442-0.398-2.719-1.454-3.772
	c-1.052-1.052-2.33-1.382-3.772-1.454c-1.486-0.084-5.941-0.084-7.427,0c-1.438,0.068-2.715,0.398-3.772,1.45
	s-1.382,2.33-1.454,3.772c-0.084,1.486-0.084,5.941,0,7.427c0.068,1.442,0.398,2.719,1.454,3.772
	c1.056,1.052,2.33,1.382,3.772,1.454c1.486,0.084,5.941,0.084,7.427,0c1.442-0.068,2.719-0.398,3.772-1.454
	c1.052-1.052,1.382-2.33,1.454-3.772C29.024,22.225,29.024,17.775,28.94,16.288L28.94,16.288z M27.02,25.306
	c-0.313,0.787-0.92,1.394-1.711,1.711c-1.185,0.47-3.997,0.362-5.306,0.362s-4.125,0.104-5.306-0.362
	c-0.787-0.313-1.394-0.92-1.711-1.711c-0.47-1.185-0.362-3.997-0.362-5.306s-0.104-4.125,0.362-5.306
	c0.313-0.787,0.92-1.394,1.711-1.711c1.185-0.47,3.997-0.362,5.306-0.362s4.125-0.104,5.306,0.362
	c0.787,0.313,1.394,0.92,1.711,1.711c0.47,1.185,0.362,3.997,0.362,5.306S27.49,24.125,27.02,25.306z"/>
</svg>
